<?xml version="1.0" encoding="UTF-8"?>
<!DOCTYPE svg PUBLIC "-//W3C//DTD SVG 1.1//EN" "http://www.w3.org/Graphics/SVG/1.1/DTD/svg11.dtd">
<svg xmlns="http://www.w3.org/2000/svg" version="1.1" width="6480px" height="4230px" style="shape-rendering:geometricPrecision; text-rendering:geometricPrecision; image-rendering:optimizeQuality; fill-rule:evenodd; clip-rule:evenodd" xmlns:xlink="http://www.w3.org/1999/xlink">
<g><path style="opacity:1" fill="#000000" d="M 3165.5,1910.5 C 3191.51,1910.17 3217.51,1910.5 3243.5,1911.5C 3267.21,1978.48 3291.38,2045.15 3316,2111.5C 3293.67,2110.17 3271.33,2110.17 3249,2111.5C 3243.33,2093 3237.17,2074.67 3230.5,2056.5C 3205.83,2055.17 3181.17,2055.17 3156.5,2056.5C 3147.56,2074.83 3138.73,2093.16 3130,2111.5C 3107,2110.17 3084,2110.17 3061,2111.5C 3087.65,2060.55 3114.65,2009.55 3142,1958.5C 3150.12,1942.6 3157.95,1926.6 3165.5,1910.5 Z M 3200.5,1956.5 C 3206.9,1974.54 3213.24,1992.7 3219.5,2011C 3204.82,2011.83 3190.16,2011.67 3175.5,2010.5C 3184.39,1992.72 3192.73,1974.72 3200.5,1956.5 Z"/></g>
<g><path style="opacity:1" fill="#000000" d="M 3444.5,1912.5 C 3464.5,1912.5 3484.5,1912.5 3504.5,1912.5C 3504.16,1924.54 3503.32,1936.54 3502,1948.5C 3483,1947.17 3464,1947.17 3445,1948.5C 3444.84,1936.46 3444.67,1924.46 3444.5,1912.5 Z"/></g>
<g><path style="opacity:1" fill="#000000" d="M 3335.5,1960.5 C 3355.84,1960.33 3376.17,1960.5 3396.5,1961C 3393.1,1990.03 3391.26,2019.2 3391,2048.5C 3393.98,2062.92 3402.81,2068.75 3417.5,2066C 3428.34,2061.82 3434.84,2053.99 3437,2042.5C 3440.28,2015.28 3442.12,1987.94 3442.5,1960.5C 3462.17,1960.5 3481.83,1960.5 3501.5,1960.5C 3497.71,2010.78 3494.87,2061.11 3493,2111.5C 3474.67,2110.17 3456.33,2110.17 3438,2111.5C 3437.67,2105.17 3437.33,2098.83 3437,2092.5C 3423.45,2108.86 3405.95,2116.19 3384.5,2114.5C 3366.89,2115.8 3351.73,2110.47 3339,2098.5C 3332.68,2089.39 3329.84,2079.22 3330.5,2068C 3333.37,2032.22 3335.03,1996.39 3335.5,1960.5 Z"/></g>
<g><path style="opacity:0.004" fill="#000100" d="M 3533.5,1961.5 C 3534.21,1960.6 3535.21,1960.26 3536.5,1960.5C 3536.69,1962.1 3536.19,1963.44 3535,1964.5C 3534.38,1963.55 3534.55,1962.72 3535.5,1962C 3534.91,1961.54 3534.24,1961.37 3533.5,1961.5 Z"/></g>
<g><path style="opacity:0.004" fill="#000100" d="M 3537.5,1960.5 C 3538.83,1961.17 3538.83,1961.17 3537.5,1960.5 Z"/></g>
<g><path style="opacity:0.008" fill="#000100" d="M 3539.5,1960.5 C 3540.83,1961.17 3540.83,1961.17 3539.5,1960.5 Z"/></g>
<g><path style="opacity:0.004" fill="#000100" d="M 3541.5,1961.5 C 3541.9,1960.47 3542.56,1960.31 3543.5,1961C 3542.91,1961.46 3542.24,1961.63 3541.5,1961.5 Z"/></g>
<g><path style="opacity:0.004" fill="#000100" d="M 3548.5,1961.5 C 3548.9,1960.47 3549.56,1960.31 3550.5,1961C 3549.91,1961.46 3549.24,1961.63 3548.5,1961.5 Z"/></g>
<g><path style="opacity:0.004" fill="#000100" d="M 3541.5,1963.5 C 3542.83,1964.17 3542.83,1964.17 3541.5,1963.5 Z"/></g>
<g><path style="opacity:0.004" fill="#000100" d="M 3533.5,1966.5 C 3534.83,1967.17 3534.83,1967.17 3533.5,1966.5 Z"/></g>
<g><path style="opacity:0.004" fill="#000100" d="M 3545.5,2061.5 C 3546.83,2062.17 3546.83,2062.17 3545.5,2061.5 Z"/></g>
<g><path style="opacity:0.004" fill="#000100" d="M 3559.5,2072.5 C 3560.83,2073.17 3560.83,2073.17 3559.5,2072.5 Z"/></g>
</svg>
