<svg width="24" height="24" viewBox="0 0 24 24" fill="none" xmlns="http://www.w3.org/2000/svg">
<path d="M5.795 14.306L4.023 12.531L2.25 14.306M18.205 9.72699L19.977 11.503L21.75 9.72699" stroke="black" stroke-width="1.5" stroke-linecap="round" stroke-linejoin="round"/>
<path d="M19.977 11.503C19.977 9.383 19.137 7.352 17.641 5.853C16.9008 5.11126 16.0215 4.52279 15.0535 4.12126C14.0856 3.71974 13.0479 3.51304 12 3.513C10.9821 3.5122 9.97359 3.70812 9.03001 4.09C7.97667 4.51234 7.02552 5.15448 6.24005 5.97358C5.45458 6.79268 4.85284 7.76989 4.47501 8.84M4.02301 12.53C4.02455 14.3846 4.67037 16.181 5.85001 17.612C7.02837 19.0413 8.66782 20.0155 10.4866 20.3672C12.3053 20.7189 14.1898 20.426 15.816 19.539C17.4422 18.6502 18.7093 17.2243 19.401 15.505" stroke="black" stroke-width="1.5" stroke-linecap="round" stroke-linejoin="round"/>
<path d="M9.57999 13.978C9.63204 14.5717 9.91445 15.1213 10.3668 15.5094C10.8191 15.8974 11.4053 16.0929 12 16.054C13.952 16.054 14.42 14.931 14.42 13.978C14.42 13.025 13.613 12.015 12 12.015C10.387 12.015 9.57999 11.377 9.57999 10.077C9.60238 9.62652 9.76145 9.19356 10.036 8.83573C10.3106 8.47791 10.6877 8.21221 11.117 8.074C11.402 7.982 11.702 7.949 12 7.977C12.5954 7.95112 13.1781 8.1544 13.6282 8.54501C14.0784 8.93562 14.3617 9.48387 14.42 10.077M12 17.264V16.213M12 6.763V7.973" stroke="black" stroke-width="1.5" stroke-linecap="round" stroke-linejoin="round"/>
</svg>
